# hexagonal-clearance-0 — type3 (V=8, F=16)
o hexagonal-clearance-0
v 0 0 0
v 1 0 0
v -0.6684030328421796 1.5933908411136917 0
v -0.4296681201675879 1.7463530342753595 -0.017803052637944815
v 1.6687996880901261 1.353525910345044 -1.162985358292151
v 0.1925110785882848 2.302700712601006 -0.04053533015299796
v 0.08797831556571138 -0.20007434557177342 -0.010958445309041522
v 0.45240798285215195 0.7025312058768133 -1.0778774857240863
f 1 2 3
f 1 4 2
f 1 3 5
f 1 5 4
f 2 6 3
f 2 4 7
f 2 5 6
f 2 8 5
f 2 7 8
f 3 7 5
f 3 6 8
f 3 8 7
f 4 5 8
f 4 6 7
f 4 8 6
f 5 7 6
