# hole-hunt-square-9 — Rich (V=8, F=16)
o hole-hunt-square-9
v 0 0 0
v 1 0 0
v 0.384807714085731 0.3036707392886534 0
v 0.054891014803909496 -0.23542504257433577 0.05250065643398148
v 0.5597729107276056 0.11281057207224156 -0.3797966995034747
v 1.1419983819471982 -0.032025065940372105 0.11370546239000338
v 0.5693352998574533 -0.7225840953665107 0.19113675093317048
v 1.1518401208357585 -0.2958024613863012 0.13203096687612542
f 4 6 7
f 4 3 6
f 4 7 5
f 4 1 3
f 4 5 2
f 4 2 1
f 6 1 7
f 6 3 5
f 6 5 8
f 6 8 1
f 7 8 5
f 7 1 2
f 7 2 8
f 3 2 5
f 3 1 8
f 3 8 2
