# hole-hunt-square-0 — Rich (V=8, F=16)
o hole-hunt-square-0
v 0 0 0
v 1 0 0
v 0.2627858205755975 0.2141874913669 0
v 0.040648781980067765 -0.18878547675520668 0.034114710864745844
v 0.6161696729561239 0.20692899510328877 -0.39870402196652055
v 1.1297992036975992 -0.022238686825010845 0.13031507592364372
v 0.5703850909491307 -0.709116592426747 0.14211112502680828
v 1.1433556271572907 -0.2611782683042898 0.13749394148627028
f 4 6 7
f 4 3 6
f 4 7 5
f 4 1 3
f 4 5 2
f 4 2 1
f 6 1 7
f 6 3 5
f 6 5 8
f 6 8 1
f 7 8 5
f 7 1 2
f 7 2 8
f 3 2 5
f 3 1 8
f 3 8 2
